<svg xmlns="http://www.w3.org/2000/svg" viewBox="0 0 1200 575" width="1200" height="575" font-family="Helvetica, Arial, sans-serif" font-size="13" fill="#1f2933">
<defs><marker id="ah" viewBox="0 0 10 10" refX="9" refY="5" markerWidth="7" markerHeight="7" orient="auto-start-reverse"><path d="M0,0 L10,5 L0,10 z" fill="#52606d"/></marker></defs>
<style>
.grp{fill:#fafafa;stroke:#9aa5b1;stroke-width:1.2}
.sub{fill:#ffffff;stroke:#9aa5b1;stroke-width:1;stroke-dasharray:4 3}
.ext{fill:#f0f1f3;stroke:#7b8794;stroke-width:1.2}
.tool{fill:#e3ecfb;stroke:#3f6bb0;stroke-width:1.2}
.data{fill:#e4f3e7;stroke:#3f8a52;stroke-width:1.2}
.arr{stroke:#52606d;stroke-width:1.5;fill:none}
.lbl{font-size:12px;fill:#3e4c59}
.ttl{font-size:13px;font-weight:600;fill:#52606d}
</style>
<rect width="1200" height="575" fill="#ffffff"/>
<rect x="25" y="15" width="190" height="56" rx="8" class="ext"/>
<text x="120.0" y="38.5" text-anchor="middle" font-weight="600">Kaggle API</text>
<text x="120.0" y="56.5" text-anchor="middle">M5 Forecasting (3 CSV)</text>
<rect x="20" y="100" width="1160" height="175" rx="10" class="grp"/>
<text x="1164" y="121" text-anchor="end" class="ttl">Docker Compose (local)</text>
<rect x="40" y="132" width="425" height="130" rx="8" class="sub"/>
<text x="455" y="150" text-anchor="end" class="lbl">Kestra + Postgres · orquestación e ingesta</text>
<rect x="55" y="160" width="190" height="90" rx="8" class="tool"/>
<text x="150.0" y="191.5" text-anchor="middle" font-weight="600">Flow ingest_raw</text>
<text x="150.0" y="209.5" text-anchor="middle">bajo demanda</text>
<text x="150.0" y="227.5" text-anchor="middle">descarga y sube los CSV</text>
<rect x="260" y="160" width="190" height="90" rx="8" class="tool"/>
<text x="355.0" y="191.5" text-anchor="middle" font-weight="600">Flow load_sales_week</text>
<text x="355.0" y="209.5" text-anchor="middle">cron sábados 06:00 UTC</text>
<text x="355.0" y="227.5" text-anchor="middle">backfill · retries · idempotente</text>
<rect x="600" y="160" width="220" height="90" rx="8" class="tool"/>
<text x="710.0" y="191.5" text-anchor="middle" font-weight="600">dbt Core</text>
<text x="710.0" y="209.5" text-anchor="middle">modelos Silver y Gold</text>
<text x="710.0" y="227.5" text-anchor="middle">118 tests</text>
<rect x="915" y="160" width="230" height="90" rx="8" class="tool"/>
<text x="1030.0" y="191.5" text-anchor="middle" font-weight="600">Spark standalone</text>
<text x="1030.0" y="209.5" text-anchor="middle">master + worker</text>
<text x="1030.0" y="227.5" text-anchor="middle">build_obt.py</text>
<rect x="20" y="365" width="1160" height="190" rx="10" class="grp"/>
<text x="36" y="544" class="ttl">Snowflake · base M5</text>
<rect x="40" y="410" width="190" height="100" rx="8" class="data"/>
<text x="135.0" y="446.5" text-anchor="middle" font-weight="600">@RAW_STAGE</text>
<text x="135.0" y="464.5" text-anchor="middle">CSV originales +</text>
<text x="135.0" y="482.5" text-anchor="middle">entregas semanales</text>
<rect x="270" y="410" width="190" height="100" rx="8" class="data"/>
<text x="365.0" y="446.5" text-anchor="middle" font-weight="600">BRONZE</text>
<text x="365.0" y="464.5" text-anchor="middle">CALENDAR · SELL_PRICES</text>
<text x="365.0" y="482.5" text-anchor="middle">SALES_RAW · LOAD_LOG</text>
<rect x="500" y="410" width="190" height="100" rx="8" class="data"/>
<text x="595.0" y="446.5" text-anchor="middle" font-weight="600">SILVER</text>
<text x="595.0" y="464.5" text-anchor="middle">stg_* · int_sales_daily</text>
<text x="595.0" y="482.5" text-anchor="middle">flags de calidad</text>
<rect x="730" y="410" width="190" height="100" rx="8" class="data"/>
<text x="825.0" y="446.5" text-anchor="middle" font-weight="600">GOLD · star schema</text>
<text x="825.0" y="464.5" text-anchor="middle">fact_sales</text>
<text x="825.0" y="482.5" text-anchor="middle">+ 4 dimensiones</text>
<rect x="960" y="410" width="190" height="100" rx="8" class="data"/>
<text x="1055.0" y="446.5" text-anchor="middle" font-weight="600">OBT</text>
<text x="1055.0" y="464.5" text-anchor="middle">OBT_SALES</text>
<text x="1055.0" y="482.5" text-anchor="middle">item × tienda × día</text>
<line x1="230" y1="460" x2="268" y2="460" class="arr" marker-end="url(#ah)"/>
<line x1="460" y1="460" x2="498" y2="460" class="arr" marker-end="url(#ah)"/>
<text x="480" y="452" text-anchor="middle" class="lbl">dbt</text>
<line x1="690" y1="460" x2="728" y2="460" class="arr" marker-end="url(#ah)"/>
<text x="710" y="452" text-anchor="middle" class="lbl">dbt</text>
<text x="310" y="384" text-anchor="middle" class="lbl">COPY por nombre de columna</text>
<text x="310" y="399" text-anchor="middle" class="lbl">(lo ordenan los flows)</text>
<line x1="120" y1="71" x2="120" y2="158" class="arr" marker-end="url(#ah)"/>
<text x="130" y="90" text-anchor="start" class="lbl">descarga</text>
<line x1="100" y1="250" x2="100" y2="408" class="arr" marker-end="url(#ah)"/>
<text x="92" y="315" text-anchor="end" class="lbl">PUT de</text>
<text x="92" y="330" text-anchor="end" class="lbl">los CSV</text>
<line x1="300" y1="250" x2="160" y2="408" class="arr" marker-end="url(#ah)"/>
<text x="265" y="312" text-anchor="start" class="lbl">publica la semana k</text>
<text x="265" y="327" text-anchor="start" class="lbl">(simulador de fuente)</text>
<line x1="690" y1="250" x2="600" y2="408" class="arr" stroke-dasharray="6 4" marker-end="url(#ah)"/>
<line x1="730" y1="250" x2="815" y2="408" class="arr" stroke-dasharray="6 4" marker-end="url(#ah)"/>
<text x="710" y="318" text-anchor="middle" class="lbl">ejecuta SQL</text>
<text x="710" y="333" text-anchor="middle" class="lbl">y tests</text>
<line x1="870" y1="408" x2="960" y2="252" class="arr" marker-end="url(#ah)"/>
<text x="858" y="318" text-anchor="end" class="lbl">lee Gold</text>
<line x1="1100" y1="250" x2="1100" y2="408" class="arr" marker-end="url(#ah)"/>
<text x="1090" y="312" text-anchor="end" class="lbl">joins + validaciones,</text>
<text x="1090" y="327" text-anchor="end" class="lbl">escribe la OBT</text>
<line x1="465" y1="205" x2="598" y2="205" class="arr" marker-end="url(#ah)"/>
<text x="532" y="196" text-anchor="middle" class="lbl">flow transform</text>
<text x="532" y="224" text-anchor="middle" class="lbl">lanza dbt build</text>
<line x1="820" y1="205" x2="913" y2="205" class="arr" marker-end="url(#ah)"/>
<text x="867" y="196" text-anchor="middle" class="lbl">y luego</text>
<text x="867" y="224" text-anchor="middle" class="lbl">spark-submit</text>
</svg>